<?xml version="1.0" ?><svg height="85.872063" id="svg8" version="1.1" viewBox="0 0 15.703606 22.720318" width="59.352207" xmlns="http://www.w3.org/2000/svg" xmlns:cc="http://creativecommons.org/ns#" xmlns:dc="http://purl.org/dc/elements/1.1/" xmlns:inkscape="http://www.inkscape.org/namespaces/inkscape" xmlns:rdf="http://www.w3.org/1999/02/22-rdf-syntax-ns#" xmlns:sodipodi="http://sodipodi.sourceforge.net/DTD/sodipodi-0.dtd" xmlns:svg="http://www.w3.org/2000/svg"><defs id="defs2"><clipPath clipPathUnits="userSpaceOnUse" id="clipPath23"><rect height="170.00711" id="rect25" style="opacity:1;fill:none;fill-opacity:1;stroke:#000000;stroke-width:1.5;stroke-linecap:round;stroke-linejoin:round;stroke-miterlimit:4;stroke-dasharray:none;stroke-dashoffset:0;stroke-opacity:0.97641512" transform="rotate(90)" width="263.84616" x="6.7847877" y="110.36194"/></clipPath></defs><g id="layer1" transform="translate(92.729993,-596.32552)"><rect height="58.184261" id="rect8011" ry="1.1433572" style="opacity:1;fill:none;fill-opacity:1;stroke:none;stroke-width:1.10699999;stroke-linecap:round;stroke-linejoin:round;stroke-miterlimit:4;stroke-dasharray:none;stroke-dashoffset:0;stroke-opacity:1" width="150.11761" x="-377.22021" y="-198.90477"/></g><g id="g8681" transform="translate(92.729993,-596.32552)"><rect height="58.184261" id="rect8677" ry="1.1433572" style="opacity:1;fill:none;fill-opacity:1;stroke:none;stroke-width:1.10699999;stroke-linecap:round;stroke-linejoin:round;stroke-miterlimit:4;stroke-dasharray:none;stroke-dashoffset:0;stroke-opacity:1" width="150.11761" x="-377.22021" y="-198.90477"/></g><g id="g9233" transform="translate(92.729993,-596.32552)"><rect height="58.184261" id="rect9229" ry="1.1433572" style="opacity:1;fill:none;fill-opacity:1;stroke:none;stroke-width:1.10699999;stroke-linecap:round;stroke-linejoin:round;stroke-miterlimit:4;stroke-dasharray:none;stroke-dashoffset:0;stroke-opacity:1" width="150.11761" x="-377.22021" y="-198.90477"/><rect height="368.83194" id="rect9311" ry="1.1433572" style="opacity:1;fill:none;fill-opacity:1;stroke:none;stroke-width:1.10699999;stroke-linecap:round;stroke-linejoin:round;stroke-miterlimit:4;stroke-dasharray:none;stroke-dashoffset:0;stroke-opacity:1" width="313.2399" x="-594.38983" y="-161.63449"/><ellipse cx="-84.878181" cy="618.73474" id="path981-7-0-6-1-3-8-1-1-7" rx="3.877409" ry="0.31109855" style="opacity:1;fill:#b3b3b3;fill-opacity:1;stroke:none;stroke-width:0.79707766;stroke-linecap:round;stroke-linejoin:round;stroke-miterlimit:4;stroke-dasharray:none;stroke-dashoffset:0;stroke-opacity:1"/><path d="m -87.228208,618.37644 h 4.700119" id="path977-8-5-8-4-7-9-1-2-9" style="opacity:1;fill:none;fill-opacity:1;stroke:#241f1c;stroke-width:0.51981038;stroke-linecap:round;stroke-linejoin:round;stroke-miterlimit:4;stroke-dasharray:none;stroke-dashoffset:0;stroke-opacity:1"/><path d="m -85.425465,618.20444 -0.03334,-14.12726 1.097278,-1.5e-4 0.0642,14.11533 z" id="path979-8-6-6-8-0-8-6-3-4-4" style="opacity:1;fill:#784421;fill-opacity:1;stroke:#241f1c;stroke-width:0.72090656;stroke-linecap:round;stroke-linejoin:round;stroke-miterlimit:4;stroke-dasharray:none;stroke-dashoffset:0;stroke-opacity:1"/><path d="m 354.91963,238.79166 c -5.71896,4.2588 -8.96913,-9.63614 -15.51684,-12.4595 -6.54771,-2.82337 -18.883,4.35114 -19.71175,-2.73103 -0.82875,-7.08216 12.8297,-2.94942 18.54866,-7.20822 5.71896,-4.2588 5.67331,-18.52873 12.22102,-15.70537 6.5477,2.82337 -3.86058,12.58557 -3.03183,19.66773 0.82875,7.08217 13.2097,14.17759 7.49074,18.43639 z" id="path6990-7" style="opacity:1;fill:#2ca02c;fill-opacity:1;stroke:#241f1c;stroke-width:2.76281357;stroke-linecap:round;stroke-linejoin:round;stroke-miterlimit:4;stroke-dasharray:none;stroke-dashoffset:0;stroke-opacity:1" transform="matrix(0.33855417,-0.14563508,0.14563508,0.33855417,-232.74521,583.68717)"/><path d="m 354.91963,238.79166 c -5.51414,4.10628 -11.47927,-4.45978 -17.79248,-7.18203 -6.31321,-2.72225 -16.63704,-1.17997 -17.43611,-8.0085 -0.79907,-6.82852 9.60192,-7.71145 15.11606,-11.81772 5.51414,-4.10628 9.34041,-13.81811 15.65362,-11.09587 6.3132,2.72225 1.87735,12.17123 2.67641,18.99976 0.79907,6.82852 7.29664,14.99808 1.7825,19.10436 z" id="path6990-7-7" style="opacity:1;fill:#37c837;fill-opacity:1;stroke:#241f1c;stroke-width:2.76281357;stroke-linecap:round;stroke-linejoin:round;stroke-miterlimit:4;stroke-dasharray:none;stroke-dashoffset:0;stroke-opacity:1" transform="matrix(0.33855417,-0.14563508,0.14563508,0.33855417,-232.74549,579.93041)"/><ellipse cx="-84.878181" cy="618.73474" id="ellipse8491" rx="3.877409" ry="0.31109855" style="opacity:1;fill:#b3b3b3;fill-opacity:1;stroke:none;stroke-width:0.79707766;stroke-linecap:round;stroke-linejoin:round;stroke-miterlimit:4;stroke-dasharray:none;stroke-dashoffset:0;stroke-opacity:1"/><path d="m -87.228208,618.37644 h 4.700119" id="path8493" style="opacity:1;fill:none;fill-opacity:1;stroke:#241f1c;stroke-width:0.51981038;stroke-linecap:round;stroke-linejoin:round;stroke-miterlimit:4;stroke-dasharray:none;stroke-dashoffset:0;stroke-opacity:1"/><ellipse cx="-84.878181" cy="618.73474" id="ellipse9043" rx="3.877409" ry="0.31109855" style="opacity:1;fill:#b3b3b3;fill-opacity:1;stroke:none;stroke-width:0.79707766;stroke-linecap:round;stroke-linejoin:round;stroke-miterlimit:4;stroke-dasharray:none;stroke-dashoffset:0;stroke-opacity:1"/><path d="m -87.228208,618.37644 h 4.700119" id="path9045" style="opacity:1;fill:none;fill-opacity:1;stroke:#241f1c;stroke-width:0.51981038;stroke-linecap:round;stroke-linejoin:round;stroke-miterlimit:4;stroke-dasharray:none;stroke-dashoffset:0;stroke-opacity:1"/></g></svg>